<svg id="Postit" xmlns="http://www.w3.org/2000/svg" viewBox="0 0 84.84 103.66"><defs><style>.cls-5{stroke:#1d1d1b;stroke-miterlimit:10;fill:none;stroke-width:6px}</style></defs><path d="M4.17 20.57h79.07c0 26.28-1.19 53 1.46 77.48a494.57 494.57 0 0 1-79 0C3 74.37 4.14 51 4.15 20.6c0-.02.01-.03.02-.03Z" transform="translate(-1.88 -3.06)" style="stroke:#1d1d1b;stroke-miterlimit:10;fill:#fff;stroke-width:4px" id="Sheet"/><g id="Pin"><path style="fill:#1d1d1b" d="M57.57 7.27 41.49 29.33 54.17 5.16l3.4 2.11z"/><circle cx="55.77" cy="6.38" r="5.88" style="fill:#1d1d1b;stroke:#1d1d1b;stroke-miterlimit:10"/></g><g id="Letter"><text id="Letter-" transform="translate(21.01 80.54)" style="font-size:74px;font-family:Calibri;fill:#1d1d1b">A</text></g><g id="Fail"><path id="FailPath" class="cls-5" d="M16.42 36.4c8.8-6 10.91-4.84 11.47-4.36 1.48 1.3.15 5.63-2.57 14.25-2.51 7.94-3.87 10.35-3 11.07 1.53 1.23 8.33-3.38 13.25-9.29 5.48-6.59 5.8-11.39 8.56-11.46 3.07-.08 7.06 5.78 6.68 11.26s-5 9.44-12.6 16.12c-6.48 5.67-10.55 7.74-10.44 11.54A6.48 6.48 0 0 0 31.28 81c5.44 2.46 15-5.79 19.95-11.38 5.35-6.09 6.87-11 12.07-11.87A8.29 8.29 0 0 1 69.43 59c4.7 3.48 4.6 14.11-.2 19.58-3.59 4.08-8.11 3.36-11.67 8.7a16.09 16.09 0 0 0-2.37 5.93" transform="translate(-1.88 -3.06)"/></g><g id="Found"><path id="FoundPath" class="cls-5" d="m56.85 34.18 8 9.93a1.36 1.36 0 0 0 2.24-.18L78 24.88" transform="translate(-1.88 -3.06)"/></g></svg>